<svg width="78" height="78" viewBox="0 0 78 78" fill="none" xmlns="http://www.w3.org/2000/svg">
<path d="M38.7428 0C17.3457 0 0 17.3364 0 38.7268C0 60.1173 17.3457 77.4576 38.7428 77.4576C60.1398 77.4576 77.4855 60.1173 77.4855 38.7268C77.4855 17.3364 60.1359 0 38.7428 0ZM38.7428 42.0119C36.9281 42.0119 35.4567 40.5409 35.4567 38.7268C35.4567 36.9127 36.9281 35.4417 38.7428 35.4417C40.5574 35.4417 42.0288 36.9127 42.0288 38.7268C42.0288 40.5409 40.5574 42.0119 38.7428 42.0119Z" fill="black"/>
<path d="M38.7428 24.2891C30.7662 24.2891 24.3005 30.7527 24.3005 38.7268C24.3005 46.7009 30.7662 53.1646 38.7428 53.1646C46.7193 53.1646 53.185 46.7009 53.185 38.7268C53.185 30.7527 46.7154 24.2891 38.7428 24.2891ZM38.7428 42.0119C36.9281 42.0119 35.4567 40.5409 35.4567 38.7268C35.4567 36.9127 36.9281 35.4417 38.7428 35.4417C40.5574 35.4417 42.0289 36.9127 42.0289 38.7268C42.0289 40.5409 40.5574 42.0119 38.7428 42.0119Z" fill="white"/>
</svg>
