<svg width="1024" height="1024" viewBox="0 0 1024 1024" fill="none" xmlns="http://www.w3.org/2000/svg">
<g clip-path="url(#clip0_59_1146)">
<rect width="1024" height="1024" fill="#F6F2EB"/>
<path d="M777.916 565.518H246.059C243.817 565.518 242 567.336 242 569.577V850.941C242 853.182 243.817 855 246.059 855H777.916C780.158 855 781.975 853.182 781.975 850.941V569.577C781.975 567.336 780.158 565.518 777.916 565.518Z" fill="#8D8D8D"/>
<path d="M596.156 178.856H242.08V353.588H596.156V178.856Z" fill="#DFDFDF"/>
<path d="M465.799 145H372.453V178.877H465.799V145Z" fill="#FF6100"/>
<path d="M596.527 145H508.031V178.877H596.527V145Z" fill="black"/>
<path d="M740.756 145H652.261V178.877H740.756V145Z" fill="#747474"/>
<path d="M314.667 145H242.08V178.877H314.667V145Z" fill="#DFDFDF"/>
<path d="M777.916 573.25H246.059C243.817 573.25 242 575.067 242 577.309V813.668C242 815.91 243.817 817.727 246.059 817.727H777.916C780.158 817.727 781.975 815.91 781.975 813.668V577.309C781.975 575.067 780.158 573.25 777.916 573.25Z" fill="#B9B9B9"/>
<path d="M781.975 528.321H242V772.798H781.975V528.321Z" fill="#B9B9B9"/>
<path d="M781.999 353.589H242.104V528.321H781.999V353.589Z" fill="black"/>
<path d="M781.976 178.856H596.54V353.588H781.976V178.856Z" fill="#959595"/>
<path d="M427.172 565.519H366.354V622.826H427.172V565.519Z" fill="#DFDFDF"/>
<path d="M427.172 644.9H366.354V702.207H427.172V644.9Z" fill="#DFDFDF"/>
<path d="M427.172 723.147H366.354V780.454H427.172V723.147Z" fill="#DFDFDF"/>
<path d="M508.788 565.519H447.971V622.826H508.788V565.519Z" fill="#747474"/>
<path d="M339.524 201.562H261.133V236.397H339.524V201.562Z" fill="#747474"/>
<path d="M508.788 644.9H447.971V702.207H508.788V644.9Z" fill="#747474"/>
<path d="M508.788 723.147H447.971V780.454H508.788V723.147Z" fill="#747474"/>
<path d="M590.444 565.519H529.627V622.826H590.444V565.519Z" fill="#747474"/>
<path d="M590.444 644.9H529.627V702.207H590.444V644.9Z" fill="#747474"/>
<path d="M672.061 644.9H611.243V702.207H672.061V644.9Z" fill="white"/>
<path d="M751.493 644.9H690.676V702.207H751.493V644.9Z" fill="white"/>
<path d="M590.444 723.147H529.627V780.454H590.444V723.147Z" fill="#747474"/>
<path d="M672.061 723.147H611.243V780.454H672.061V723.147Z" fill="#FF6100"/>
<path d="M751.493 723.147H690.676V780.454H751.493V723.147Z" fill="#747474"/>
<path d="M641.655 615.084C653.168 615.084 662.499 605.719 662.499 594.167C662.499 582.615 653.168 573.25 641.655 573.25C630.143 573.25 620.812 582.615 620.812 594.167C620.812 605.719 630.143 615.084 641.655 615.084Z" fill="#FF6100"/>
<path d="M301.782 616.879C313.294 616.879 322.626 607.515 322.626 595.963C322.626 584.411 313.294 575.045 301.782 575.045C290.27 575.045 280.938 584.411 280.938 595.963C280.938 607.515 290.27 616.879 301.782 616.879Z" fill="white"/>
<path d="M724.586 615.084C736.098 615.084 745.43 605.719 745.43 594.167C745.43 582.615 736.098 573.25 724.586 573.25C713.074 573.25 703.742 582.615 703.742 594.167C703.742 605.719 713.074 615.084 724.586 615.084Z" fill="black"/>
<path d="M712.326 230.832C718.945 230.832 724.31 225.448 724.31 218.806C724.31 212.165 718.945 206.78 712.326 206.78C705.708 206.78 700.343 212.165 700.343 218.806C700.343 225.448 705.708 230.832 712.326 230.832Z" fill="#4D4D4D"/>
<path d="M680.69 230.832C687.308 230.832 692.673 225.448 692.673 218.806C692.673 212.165 687.308 206.78 680.69 206.78C674.071 206.78 668.706 212.165 668.706 218.806C668.706 225.448 674.071 230.832 680.69 230.832Z" fill="#4D4D4D"/>
<path d="M648.988 262.43C655.607 262.43 660.972 257.046 660.972 250.405C660.972 243.763 655.607 238.379 648.988 238.379C642.37 238.379 637.005 243.763 637.005 250.405C637.005 257.046 642.37 262.43 648.988 262.43Z" fill="#4D4D4D"/>
<path d="M712.325 262.43C718.944 262.43 724.309 257.046 724.309 250.405C724.309 243.763 718.944 238.379 712.325 238.379C705.707 238.379 700.342 243.763 700.342 250.405C700.342 257.046 705.707 262.43 712.325 262.43Z" fill="#4D4D4D"/>
<path d="M680.689 262.43C687.307 262.43 692.672 257.046 692.672 250.405C692.672 243.763 687.307 238.379 680.689 238.379C674.07 238.379 668.705 243.763 668.705 250.405C668.705 257.046 674.07 262.43 680.689 262.43Z" fill="#4D4D4D"/>
<path d="M744.026 262.43C750.644 262.43 756.009 257.046 756.009 250.405C756.009 243.763 750.644 238.379 744.026 238.379C737.407 238.379 732.042 243.763 732.042 250.405C732.042 257.046 737.407 262.43 744.026 262.43Z" fill="#4D4D4D"/>
<path d="M648.988 294.032C655.607 294.032 660.972 288.648 660.972 282.007C660.972 275.365 655.607 269.98 648.988 269.98C642.37 269.98 637.005 275.365 637.005 282.007C637.005 288.648 642.37 294.032 648.988 294.032Z" fill="#4D4D4D"/>
<path d="M712.325 294.032C718.944 294.032 724.309 288.648 724.309 282.007C724.309 275.365 718.944 269.98 712.325 269.98C705.707 269.98 700.342 275.365 700.342 282.007C700.342 288.648 705.707 294.032 712.325 294.032Z" fill="#4D4D4D"/>
<path d="M680.689 294.032C687.307 294.032 692.672 288.648 692.672 282.007C692.672 275.365 687.307 269.98 680.689 269.98C674.07 269.98 668.705 275.365 668.705 282.007C668.705 288.648 674.07 294.032 680.689 294.032Z" fill="#4D4D4D"/>
<path d="M744.026 294.032C750.644 294.032 756.009 288.648 756.009 282.007C756.009 275.365 750.644 269.98 744.026 269.98C737.407 269.98 732.042 275.365 732.042 282.007C732.042 288.648 737.407 294.032 744.026 294.032Z" fill="#4D4D4D"/>
<path d="M712.326 325.63C718.945 325.63 724.31 320.246 724.31 313.605C724.31 306.963 718.945 301.579 712.326 301.579C705.708 301.579 700.343 306.963 700.343 313.605C700.343 320.246 705.708 325.63 712.326 325.63Z" fill="#4D4D4D"/>
<path d="M680.69 325.63C687.308 325.63 692.673 320.247 692.673 313.605C692.673 306.964 687.308 301.579 680.69 301.579C674.071 301.579 668.706 306.964 668.706 313.605C668.706 320.247 674.071 325.63 680.69 325.63Z" fill="#4D4D4D"/>
<path d="M302.321 666.911V771.57" stroke="black" stroke-width="2.02956" stroke-miterlimit="1.5" stroke-linecap="round" stroke-linejoin="round"/>
<path d="M302.312 731.371C310.717 731.371 317.53 724.534 317.53 716.1C317.53 707.666 310.717 700.828 302.312 700.828C293.907 700.828 287.094 707.666 287.094 716.1C287.094 724.534 293.907 731.371 302.312 731.371Z" fill="#DEDEDE"/>
</g>
<defs>
<clipPath id="clip0_59_1146">
<rect width="1024" height="1024" rx="200" fill="white"/>
</clipPath>
</defs>
</svg>
