<svg width="761" height="76" viewBox="0 0 761 76" fill="none" xmlns="http://www.w3.org/2000/svg">
<path fill-rule="evenodd" clip-rule="evenodd" d="M24.8035 37.8222L46.075 58.9747L29.5585 75.4912L18.8373 64.6251C6.37755 52.1653 0.87207 46.8047 0.87207 37.8221C0.87207 28.8394 6.37755 23.4788 18.8373 11.0191L29.7034 0.297852L45.9301 16.8143L24.8035 37.8222Z" fill="white"/>
<path fill-rule="evenodd" clip-rule="evenodd" d="M67.3456 37.8222L46.075 58.9747L62.5906 75.4912L73.3118 64.6251C85.7716 52.1653 91.2771 46.8047 91.2771 37.8221C91.2771 28.8394 85.7716 23.4788 73.3118 11.0191L62.4457 0.297852L46.2191 16.8143L67.3456 37.8222Z" fill="white"/>
<path d="M162.96 60.1075C150.723 60.1075 143.852 50.9771 143.852 37.8933C143.852 24.8095 150.723 15.679 162.96 15.679C171.243 15.679 178.962 19.9148 180.938 31.3984L193.646 28.5746C190.728 13.7965 179.527 4.0072 162.678 4.0072C142.534 4.0072 129.639 17.9381 129.639 37.9874C129.639 57.9425 142.534 71.7794 162.678 71.7794C178.962 71.7794 190.539 62.6489 193.646 47.2119L180.938 44.3881C178.962 55.8717 171.243 60.1075 162.96 60.1075Z" fill="white"/>
<path d="M232.05 4.0072C211.906 4.0072 198.54 17.5616 198.54 37.9874C198.54 58.2249 211.906 71.7794 232.05 71.7794C252.193 71.7794 265.559 58.2249 265.559 37.9874C265.559 17.5616 252.193 4.0072 232.05 4.0072ZM232.05 60.1075C220.848 60.1075 212.753 52.1066 212.753 37.8933C212.753 23.68 220.848 15.679 232.05 15.679C243.251 15.679 251.346 23.68 251.346 37.8933C251.346 52.1066 243.251 60.1075 232.05 60.1075Z" fill="white"/>
<path d="M331.825 70.8381L314.977 44.3881C324.295 41.8466 329.849 35.3518 329.849 25.5625C329.849 12.6669 321.283 4.94849 305.564 4.94849H275.537V70.8381H289.374V45.6117H303.116L316.012 70.8381H331.825ZM289.374 15.8673H301.987C311.118 15.8673 316.012 18.597 316.012 25.5625C316.012 32.4338 310.929 35.2577 301.893 35.2577H289.374V15.8673Z" fill="white"/>
<path d="M389.714 4.94849V57.6602L361.287 4.94849H341.708V70.8381H354.792V18.0322L383.219 70.8381H402.797V4.94849H389.714Z" fill="white"/>
<path d="M466.899 16.338V4.94849H416.917V70.8381H466.899V59.4486H430.754V42.9762H464.075V31.5867H430.754V16.338H466.899Z" fill="white"/>
<path d="M535.895 70.8381L519.046 44.3881C528.365 41.8466 533.918 35.3518 533.918 25.5625C533.918 12.6669 525.353 4.94849 509.633 4.94849H479.606V70.8381H493.443V45.6117H507.186L520.081 70.8381H535.895ZM493.443 15.8673H506.057C515.187 15.8673 520.081 18.597 520.081 25.5625C520.081 32.4338 514.999 35.2577 505.962 35.2577H493.443V15.8673Z" fill="white"/>
<path d="M598.584 4.94849L582.582 55.2128L566.58 4.94849H545.778V70.8381H558.297V14.4554L574.77 70.8381H590.395L606.867 14.4554V70.8381H619.386V4.94849H598.584Z" fill="white"/>
<path d="M678.028 70.8381H691.865L668.615 4.94849H650.166L626.917 70.8381H640.753L644.613 59.0721H674.169L678.028 70.8381ZM648.001 48.5297L659.391 13.7965L670.686 48.5297H648.001Z" fill="white"/>
<path d="M747.4 4.94849V57.6602L718.974 4.94849H699.395V70.8381H712.479V18.0322L740.906 70.8381H760.484V4.94849H747.4Z" fill="white"/>
</svg>
