<svg width="349" height="319" viewBox="0 0 349 319" fill="none" xmlns="http://www.w3.org/2000/svg">
<path fill-rule="evenodd" clip-rule="evenodd" d="M340.153 127.724C351.566 147.493 351.566 171.851 340.153 191.619C324.137 219.359 301.064 259.318 285.049 287.057C273.635 306.821 252.543 319 229.715 319H119.511C96.6836 319 75.5877 306.821 64.1739 287.057C48.1585 259.318 25.0892 219.359 9.07387 191.619C-2.33995 171.851 -2.33995 147.493 9.07387 127.724C25.0892 99.9894 48.1585 60.0263 64.1739 32.2913C75.5877 12.5226 96.6836 0.34375 119.511 0.34375C151.542 0.34375 197.684 0.34375 229.715 0.34375C252.543 0.34375 273.635 12.5226 285.049 32.2913C301.064 60.0263 324.137 99.9894 340.153 127.724Z" fill="#F7F2EC"/>
</svg>
