<svg width="329" height="317" viewBox="0 0 329 317" fill="none" xmlns="http://www.w3.org/2000/svg">
<path fill-rule="evenodd" clip-rule="evenodd" d="M207.211 271.523C207.262 272.374 207.287 273.231 207.287 274.085C207.287 297.625 188.175 316.739 164.631 316.739C141.089 316.739 121.974 297.625 121.974 274.085C121.974 273.231 122.002 272.374 122.053 271.523L126.409 199.111L58.8857 225.63C58.0913 225.943 57.2855 226.232 56.474 226.496C34.0817 233.77 9.99832 221.499 2.72338 199.111C-4.55157 176.72 7.71994 152.637 30.1094 145.363C30.9237 145.099 31.7437 144.858 32.5694 144.645L102.788 126.413L56.6981 70.3892C56.1562 69.7309 55.6312 69.0528 55.129 68.3634C41.2913 49.3171 45.519 22.6217 64.5661 8.78457C83.6132 -5.05255 110.31 -0.825093 124.147 18.2183C124.65 18.9106 125.132 19.6171 125.592 20.3377L164.631 81.4827L203.67 20.3377C204.129 19.6171 204.612 18.9106 205.114 18.2183C218.952 -0.825093 245.651 -5.05255 264.695 8.78457C283.742 22.6217 287.97 49.3171 274.132 68.3634C273.63 69.0528 273.108 69.7309 272.563 70.3892L226.476 126.413L296.692 144.645C297.52 144.858 298.34 145.099 299.152 145.363C321.544 152.637 333.816 176.72 326.541 199.111C319.266 221.499 295.18 233.77 272.79 226.496C271.976 226.232 271.173 225.943 270.376 225.63L202.852 199.111L207.211 271.523Z" fill="#71ADC5"/>
</svg>
