<svg width="320" height="306" viewBox="0 0 320 306" fill="none" xmlns="http://www.w3.org/2000/svg">
<path fill-rule="evenodd" clip-rule="evenodd" d="M148.651 171.951L5.05355 125.297C1.42952 124.119 -0.555311 120.224 0.622965 116.6C1.79752 112.976 5.69657 110.991 9.32061 112.17L152.914 158.823V7.84435C152.914 4.03501 156.01 0.941895 159.82 0.941895C163.626 0.941895 166.719 4.03501 166.719 7.84435V158.986L310.822 112.17C314.446 110.991 318.341 112.976 319.519 116.6C320.698 120.224 318.713 124.119 315.089 125.297L171.491 171.951L260.241 294.096C262.479 297.181 261.795 301.499 258.714 303.737C255.632 305.978 251.309 305.294 249.072 302.209L160.069 179.719L71.0705 302.209C68.8328 305.294 64.51 305.978 61.4287 303.737C58.3473 301.499 57.6634 297.181 59.901 294.096L148.651 171.951Z" fill="#755A3F"/>
</svg>
