<svg width="322" height="311" viewBox="0 0 322 311" fill="none" xmlns="http://www.w3.org/2000/svg">
<path fill-rule="evenodd" clip-rule="evenodd" d="M108.043 63.9045C107.473 60.7489 107.185 57.5477 107.185 54.3404C107.185 24.6844 131.265 0.606201 160.922 0.606201C190.579 0.606201 214.658 24.6844 214.658 54.3404C214.658 57.5477 214.37 60.7489 213.8 63.9045L206.621 103.589L242.146 84.4998C244.972 82.981 247.927 81.7192 250.977 80.7288C279.184 71.5625 309.525 87.0214 318.69 115.227C327.854 143.432 312.395 173.77 284.188 182.934C281.138 183.927 278.005 184.642 274.826 185.075L234.865 190.512L264 218.396C266.316 220.615 268.43 223.035 270.315 225.631C287.748 249.622 282.42 283.254 258.428 300.686C234.434 318.117 200.8 312.79 183.368 288.799C181.483 286.203 179.835 283.445 178.441 280.557L160.922 244.231L143.403 280.557C142.008 283.445 140.361 286.203 138.475 288.799C121.043 312.79 87.4096 318.117 63.4153 300.686C39.4231 283.254 34.0958 249.622 51.528 225.631C53.4135 223.035 55.527 220.615 57.8436 218.396L86.9787 190.512L47.0171 185.075C43.8386 184.642 40.7057 183.927 37.6557 182.934C9.4489 173.77 -6.01059 143.432 3.15407 115.227C12.3187 87.0214 42.6596 71.5625 70.8664 80.7288C73.9165 81.7192 76.8712 82.981 79.6975 84.4998L115.223 103.589L108.043 63.9045Z" fill="#8D8D8D"/>
</svg>
